<svg width="24" height="24" viewBox="0 0 24 24" fill="none" xmlns="http://www.w3.org/2000/svg">
  <path d="M12 2C6.477 2 2 6.477 2 12C2 16.42 4.865 20.17 8.839 21.49C9.339 21.58 9.521 21.27 9.521 21.01C9.521 20.78 9.512 20.14 9.507 19.31C6.726 19.91 6.14 18.04 6.14 18.04C5.685 16.81 5.029 16.5 5.029 16.5C4.121 15.88 5.097 15.9 5.097 15.9C6.101 15.97 6.629 16.93 6.629 16.93C7.521 18.45 8.97 18 9.539 17.76C9.631 17.11 9.889 16.67 10.175 16.42C7.954 16.17 5.619 15.31 5.619 11.47C5.619 10.39 6.01 9.5 6.649 8.79C6.546 8.54 6.203 7.5 6.747 6.15C6.747 6.15 7.586 5.88 9.496 7.17C10.295 6.95 11.15 6.84 12 6.84C12.85 6.84 13.705 6.95 14.504 7.17C16.414 5.88 17.253 6.15 17.253 6.15C17.797 7.5 17.454 8.54 17.351 8.79C17.991 9.5 18.381 10.39 18.381 11.47C18.381 15.32 16.036 16.16 13.811 16.41C14.171 16.72 14.493 17.33 14.493 18.26C14.493 19.6 14.481 20.68 14.481 21.01C14.481 21.27 14.661 21.59 15.166 21.49C19.14 20.17 22 16.42 22 12C22 6.477 17.523 2 12 2Z" fill="currentColor"/>
</svg>

